<?xml version="1.0" standalone="no"?>
<!DOCTYPE svg PUBLIC "-//W3C//DTD SVG 20010904//EN"
 "http://www.w3.org/TR/2001/REC-SVG-20010904/DTD/svg10.dtd">
<svg version="1.0" xmlns="http://www.w3.org/2000/svg"
 width="256.000000pt" height="256.000000pt" viewBox="0 0 256.000000 256.000000"
 preserveAspectRatio="xMidYMid meet">

<g transform="translate(0.000000,256.000000) scale(0.100000,-0.100000)"
fill="#000000" stroke="none">
<path d="M333 1740 c-24 -10 -38 -48 -29 -78 7 -22 377 -308 434 -335 26 -13
53 -17 92 -14 49 4 80 19 252 116 125 71 206 111 224 111 18 0 102 -42 224
-111 168 -95 203 -112 250 -116 74 -6 101 9 338 191 193 148 193 148 190 184
-2 29 -9 40 -30 50 -36 17 -34 18 -255 -150 -101 -76 -194 -144 -208 -150 -29
-13 -28 -13 -275 127 -168 96 -177 100 -235 100 -57 0 -69 -4 -200 -79 -77
-44 -162 -92 -189 -108 -69 -42 -92 -49 -120 -38 -14 5 -96 64 -183 130 -155
119 -241 181 -252 179 -4 0 -16 -4 -28 -9z"/>
<path d="M322 1144 c-22 -15 -30 -57 -14 -80 4 -6 65 -55 137 -109 72 -54 164
-124 205 -156 86 -66 140 -84 208 -68 24 5 125 56 226 114 101 57 195 107 209
110 21 6 63 -14 221 -104 108 -61 215 -115 238 -120 82 -19 114 -3 332 161
111 83 207 158 214 166 6 9 12 28 12 44 0 34 -39 63 -72 54 -13 -3 -111 -73
-218 -156 -145 -111 -202 -149 -224 -150 -18 0 -97 39 -225 113 l-196 112 -70
0 -70 0 -196 -112 c-108 -62 -207 -113 -220 -113 -31 0 -43 8 -259 173 -99 75
-188 137 -198 137 -10 0 -28 -7 -40 -16z"/>
</g>
</svg>
