<?xml version="1.0" standalone="no"?>
<!DOCTYPE svg PUBLIC "-//W3C//DTD SVG 20010904//EN"
 "http://www.w3.org/TR/2001/REC-SVG-20010904/DTD/svg10.dtd">
<svg version="1.0" xmlns="http://www.w3.org/2000/svg"
 width="619.000000pt" height="133.000000pt" viewBox="0 0 619.000000 133.000000"
 preserveAspectRatio="xMidYMid meet">

<g transform="translate(0.000000,133.000000) scale(0.100000,-0.100000)"
fill="#000000" stroke="none">
<path d="M4466 1214 c-14 -14 -16 -71 -16 -482 0 -257 4 -473 9 -480 5 -8 21
-12 37 -10 l29 3 3 479 c1 345 -1 483 -9 492 -15 18 -34 18 -53 -2z"/>
<path d="M5286 1214 c-14 -14 -16 -71 -16 -479 0 -255 3 -470 6 -479 9 -22 51
-20 64 3 6 12 10 104 10 229 0 257 6 279 94 368 73 72 126 94 230 94 124 -1
222 -63 278 -177 l33 -67 5 -231 5 -230 30 0 30 0 0 245 0 245 -33 67 c-120
244 -433 302 -626 116 -27 -26 -50 -48 -50 -48 -1 0 0 74 2 164 2 140 1 166
-13 180 -20 20 -29 20 -49 0z"/>
<path d="M4722 1208 c-18 -18 -16 -595 2 -666 40 -150 188 -287 326 -300 40
-4 50 -1 59 15 15 30 -4 48 -69 67 -110 31 -205 121 -236 223 -8 26 -14 89
-14 144 l0 99 163 2 162 3 0 30 0 30 -160 5 -160 5 -3 164 c-1 101 -7 170 -13
178 -14 16 -41 17 -57 1z"/>
<path d="M255 1069 c-83 -24 -145 -117 -145 -219 0 -69 14 -110 55 -158 53
-64 66 -66 320 -72 223 -5 231 -6 264 -29 96 -68 84 -214 -22 -261 -37 -17
-66 -20 -231 -20 -171 0 -194 2 -232 20 -49 24 -72 56 -89 120 -10 41 -14 45
-41 45 -29 0 -29 -1 -29 -56 0 -68 33 -124 97 -166 l42 -28 251 0 251 0 42 28
c65 42 96 97 100 176 6 102 -36 178 -122 224 -38 20 -60 22 -266 27 -159 3
-232 9 -248 18 -61 35 -83 151 -41 219 37 59 54 63 288 63 l209 0 31 -26 c39
-33 53 -58 60 -108 7 -45 32 -67 59 -50 39 25 21 123 -36 186 -65 72 -88 78
-327 77 -116 0 -223 -5 -240 -10z"/>
<path d="M1300 1065 c-269 -76 -396 -395 -248 -628 40 -63 121 -134 188 -166
50 -23 67 -26 175 -26 110 0 125 2 178 27 109 51 240 209 211 255 -21 34 -55
22 -81 -27 -35 -66 -89 -117 -163 -153 -57 -28 -74 -32 -146 -31 -71 0 -90 4
-147 32 -80 40 -148 112 -176 188 -35 92 -68 84 353 84 427 0 403 -5 392 85
-18 154 -125 292 -268 347 -71 27 -196 33 -268 13z m237 -87 c99 -37 194 -147
217 -250 l6 -28 -346 0 -346 0 7 33 c25 113 128 222 245 258 52 16 158 10 217
-13z"/>
<path d="M2256 1069 c-110 -26 -234 -130 -285 -239 -23 -49 -26 -67 -26 -170
0 -108 2 -119 31 -181 40 -84 114 -158 201 -201 65 -32 72 -33 183 -33 110 0
118 1 182 33 44 22 84 52 122 92 l55 60 3 -92 c3 -90 4 -93 27 -96 50 -7 51 2
51 419 0 339 -2 390 -16 403 -8 9 -21 16 -28 16 -27 0 -36 -26 -36 -108 l0
-84 -58 59 c-31 33 -80 71 -107 85 -88 44 -205 59 -299 37z m249 -99 c72 -34
148 -116 175 -187 31 -81 25 -206 -12 -278 -124 -238 -448 -257 -597 -35 -125
188 -34 445 182 516 65 21 192 13 252 -16z"/>
<path d="M2982 873 c-5 -10 -7 -24 -5 -31 7 -18 252 -202 292 -219 46 -20 69
-12 211 68 69 39 134 71 145 71 11 0 76 -32 144 -71 141 -80 166 -88 212 -68
40 17 285 201 292 219 7 21 -12 48 -35 48 -12 0 -73 -39 -137 -87 -172 -131
-140 -127 -298 -39 -179 100 -177 100 -356 0 -158 -88 -126 -92 -298 39 -116
87 -151 102 -167 70z"/>
<path d="M2986 499 c-8 -12 -12 -27 -9 -35 2 -7 67 -60 144 -118 180 -137 176
-137 364 -31 73 41 136 75 140 75 4 0 67 -34 140 -75 186 -105 185 -105 352
21 154 116 167 129 152 155 -6 11 -17 23 -25 26 -9 3 -67 -34 -148 -96 -78
-60 -142 -101 -156 -101 -12 0 -79 32 -148 72 -166 95 -169 95 -333 0 -70 -39
-137 -72 -149 -72 -14 0 -77 41 -155 100 -72 55 -136 100 -142 100 -7 0 -19
-10 -27 -21z"/>
</g>
</svg>
